<svg className="w-5 h-5" viewBox="0 0 24 24" fill="none" xmlns="http://www.w3.org/2000/svg">
	<path d="M8 12H16" stroke="currentColor" strokeWidth="2" strokeLinecap="round" strokeLinejoin="round" />
	<path d="M12 8V16" stroke="currentColor" strokeWidth="2" strokeLinecap="round" strokeLinejoin="round" />
	<path d="M12 21C17.523 21 22 16.523 22 11C22 5.477 17.523 1 12 1C6.477 1 2 5.477 2 11C2 16.523 6.477 21 12 21Z" stroke="currentColor" strokeWidth="2" strokeLinecap="round" strokeLinejoin="round" />
	<path d="M9.5 13.5C9.5 12.9477 9.94772 12.5 10.5 12.5C11.0523 12.5 11.5 12.9477 11.5 13.5C11.5 14.0523 11.0523 14.5 10.5 14.5C9.94772 14.5 9.5 14.0523 9.5 13.5Z" fill="currentColor" />
	<path d="M13.5 13.5C13.5 12.9477 13.9477 12.5 14.5 12.5C15.0523 12.5 15.5 12.9477 15.5 13.5C15.5 14.0523 15.0523 14.5 14.5 14.5C13.9477 14.5 13.5 14.0523 13.5 13.5Z" fill="currentColor" />
</svg>
